<svg width="227" height="220" viewBox="0 0 227 220" fill="none" xmlns="http://www.w3.org/2000/svg">
<path fill-rule="evenodd" clip-rule="evenodd" d="M115.585 4.57268L114.552 3.99478C104.494 -1.39885 92.3224 -1.20622 82.416 4.57268L15.1776 43.7951L14.2658 44.3488C5.56621 49.8447 0.257141 59.4319 0.257141 69.7714C0.257141 80.4675 5.93866 90.3586 15.1776 95.7481L127.985 161.55C129.783 162.599 130.682 163.124 131.671 163.124C132.66 163.123 133.559 162.599 135.356 161.55L148.027 154.158C150.437 152.752 151.642 152.049 151.642 150.999C151.642 149.949 150.437 149.246 148.027 147.84L26.2338 76.7942L25.7138 76.4636C23.5246 74.954 22.2004 72.4565 22.2004 69.7714C22.2004 66.8797 23.7364 64.2056 26.2338 62.7486L93.4722 23.5265L94.1656 23.1546C97.4479 21.5425 101.34 21.6665 104.529 23.5265L170.357 61.9265L170.974 62.3141C173.979 64.345 175.8 67.745 175.8 71.4032V148.597L175.776 149.325C175.536 152.944 173.517 156.23 170.357 158.074L104.529 196.473L103.835 196.845C100.553 198.457 96.6605 198.334 93.4722 196.473L27.6437 158.074L27.0271 157.686C24.022 155.655 22.2004 152.255 22.2004 148.597L22.2 120.979C22.2 118.928 22.2 117.902 21.714 117.056C21.2283 116.211 20.3425 115.694 18.5714 114.661L5.75701 107.186C3.31422 105.761 2.09281 105.048 1.17497 105.576C0.257141 106.103 0.257141 107.517 0.257141 110.345V148.597L0.275647 149.691C0.649919 160.975 6.79136 171.313 16.5874 177.027L82.416 215.427L83.4484 216.005C93.5062 221.399 105.678 221.206 115.585 215.427L181.413 177.027L182.35 176.46C191.908 170.451 197.743 159.938 197.743 148.597V71.4032L197.725 70.3087C197.351 59.0249 191.209 48.6869 181.413 42.9726L115.585 4.57268ZM204.251 181.213C203.262 181.213 202.363 181.738 200.565 182.787L187.895 190.179C185.485 191.585 184.28 192.288 184.28 193.338C184.28 194.388 185.485 195.091 187.895 196.497L221.5 216.101C223.943 217.526 225.164 218.238 226.082 217.711C227 217.184 227 215.77 227 212.942V198.108C227 196.057 227 195.032 226.514 194.186C226.028 193.34 225.143 192.823 223.371 191.79L207.936 182.786C206.139 181.738 205.24 181.213 204.251 181.213Z" fill="url(#paint0_linear_5_5)"/>
<defs>
<linearGradient id="paint0_linear_5_5" x1="227" y1="0.0890503" x2="-40.9353" y2="77.6966" gradientUnits="userSpaceOnUse">
<stop stop-color="#D4D4D4"/>
<stop offset="1" stop-color="#858282"/>
</linearGradient>
</defs>
</svg>
